# xmcd CD database file
#
# Track frame offsets:
#	150
#	38625
#	64500
#	96150
#	111575
#	157950
#	195225
#
# Disc length: 2789 seconds
#
# Revision: 1
# Processed by: cddbd v1.5.2PL0 Copyright (c) Steve Scherf et al.
# Submitted via: CDex 1.70beta2
#
DISCID=500ae307
DTITLE=Tony Scott - Lush Life Volume 2
DYEAR=1984
DGENRE=Jazz
TTITLE0=Lush Life
TTITLE1=Blues For A Lush
TTITLE2=Lush Life
TTITLE3=Lush Life
TTITLE4=Lush Life
TTITLE5=Blues For A Lush - Lush Life
TTITLE6=Lush Life
EXTD=YEAR: 1984
EXTT0=
EXTT1=
EXTT2=
EXTT3=
EXTT4=
EXTT5=
EXTT6=
PLAYORDER=
